<svg xmlns="http://www.w3.org/2000/svg" width="1024" height="1024" viewBox="0 0 1024 1024"><defs><linearGradient id="bg" x1="0" x2="1" y1="0" y2="1"><stop stop-color="#A27BFF"/><stop offset="1" stop-color="#6334C8"/></linearGradient></defs><rect width="1024" height="1024" fill="url(#bg)"/><circle cx="512" cy="512" r="414" fill="none" stroke="#C5A7FF" stroke-opacity=".35" stroke-width="3"/><path d="M170 352C310 247 415 272 512 337C609 272 714 247 854 352L806 532C778 644 638 676 558 596L512 544L466 596C386 676 246 644 218 532Z" fill="#F4EFFF"/><path d="M277 403L452 448C428 533 307 538 277 403ZM747 403L572 448C596 533 717 538 747 403Z" fill="#1A1033"/><path d="M402 720Q512 764 622 720" fill="none" stroke="#F4EFFF" stroke-width="25" stroke-linecap="round"/><path d="M822 188L833 218L863 229L833 240L822 270L811 240L781 229L811 218Z" fill="#EBDFFF"/></svg>